<svg width="96" height="104" fill="none" xmlns="http://www.w3.org/2000/svg" class="animate-pulse"><g filter="url(#performance_svg__a)" fill-rule="evenodd" clip-rule="evenodd"><path d="M48.466 17c14.623 0 26.476 11.864 26.476 26.5 0 14.635-11.853 26.5-26.476 26.5C33.844 70 21.99 58.135 21.99 43.5c0-14.636 11.854-26.5 26.476-26.5Z" fill="#FF4361"></path><path d="M48.466 17c14.623 0 26.476 11.864 26.476 26.5 0 14.635-11.853 26.5-26.476 26.5C33.844 70 21.99 58.135 21.99 43.5c0-14.636 11.854-26.5 26.476-26.5Z" fill="url(#performance_svg__b)"></path></g><path fill-rule="evenodd" clip-rule="evenodd" d="M42.972 1h9.991C69.517 1 82.936 14.43 82.936 31v10c0 16.568-13.42 30-29.973 30h-9.99c-16.554 0-29.974-13.432-29.974-30V31c0-16.569 13.42-30 29.973-30Z" fill="#FF4361"></path><path fill-rule="evenodd" clip-rule="evenodd" d="M42.972 1h9.991C69.517 1 82.936 14.43 82.936 31v10c0 16.568-13.42 30-29.973 30h-9.99c-16.554 0-29.974-13.432-29.974-30V31c0-16.569 13.42-30 29.973-30Z" fill="url(#performance_svg__c)"></path><path fill-rule="evenodd" clip-rule="evenodd" d="M56.908 31.003a.557.557 0 0 0-.506-.337h-6.616l6.53-10.772a.604.604 0 0 0 .017-.592.555.555 0 0 0-.49-.303h-8.932a.557.557 0 0 0-.5.322l-8.375 17.5a.606.606 0 0 0 .025.568.554.554 0 0 0 .475.276h5.741l-6.256 15.524a.599.599 0 0 0 .224.724.545.545 0 0 0 .718-.121L56.83 31.625a.605.605 0 0 0 .079-.622Z" fill="#fff"></path><defs><linearGradient id="performance_svg__b" x1="52.598" y1="102.635" x2="107.605" y2="39.414" gradientUnits="userSpaceOnUse"><stop stop-color="#F80759"></stop><stop offset="1" stop-color="#BC4E9C"></stop></linearGradient><linearGradient id="performance_svg__c" x1="53.376" y1="113.413" x2="125.385" y2="30.651" gradientUnits="userSpaceOnUse"><stop stop-color="#F80759"></stop><stop offset="1" stop-color="#BC4E9C"></stop></linearGradient><filter id="performance_svg__a" x="0.99" y="9" width="94.952" height="95" filterUnits="userSpaceOnUse" color-interpolation-filters="sRGB"><feFlood flood-opacity="0" result="BackgroundImageFix"></feFlood><feColorMatrix in="SourceAlpha" values="0 0 0 0 0 0 0 0 0 0 0 0 0 0 0 0 0 0 127 0"></feColorMatrix><feOffset dy="13"></feOffset><feGaussianBlur stdDeviation="10.5"></feGaussianBlur><feColorMatrix values="0 0 0 0 0.898039 0 0 0 0 0.117647 0 0 0 0 0.435294 0 0 0 0.3 0"></feColorMatrix><feBlend in2="BackgroundImageFix" result="effect1_dropShadow"></feBlend><feBlend in="SourceGraphic" in2="effect1_dropShadow" result="shape"></feBlend></filter></defs></svg>