<svg width="96" height="104" fill="none" xmlns="http://www.w3.org/2000/svg" class="animate-pulse"><g filter="url(#support_svg__a)" fill-rule="evenodd" clip-rule="evenodd"><path d="M47.704 17C62.326 17 74.18 28.864 74.18 43.5c0 14.635-11.854 26.5-26.476 26.5S21.228 58.135 21.228 43.5c0-14.636 11.854-26.5 26.476-26.5Z" fill="#FF4361"></path><path d="M47.704 17C62.326 17 74.18 28.864 74.18 43.5c0 14.635-11.854 26.5-26.476 26.5S21.228 58.135 21.228 43.5c0-14.636 11.854-26.5 26.476-26.5Z" fill="url(#support_svg__b)"></path></g><path fill-rule="evenodd" clip-rule="evenodd" d="M42.209 1H52.2C68.754 1 82.173 14.43 82.173 31v10c0 16.568-13.42 30-29.973 30h-9.991c-16.554 0-29.973-13.432-29.973-30V31c0-16.569 13.42-30 29.973-30Z" fill="#FF4361"></path><path fill-rule="evenodd" clip-rule="evenodd" d="M42.209 1H52.2C68.754 1 82.173 14.43 82.173 31v10c0 16.568-13.42 30-29.973 30h-9.991c-16.554 0-29.973-13.432-29.973-30V31c0-16.569 13.42-30 29.973-30Z" fill="url(#support_svg__c)"></path><path fill-rule="evenodd" clip-rule="evenodd" d="M60.293 23h-23.18a2.907 2.907 0 0 0-2.897 2.899v26.1l5.795-5.8h20.282a2.907 2.907 0 0 0 2.897-2.9v-17.4c0-1.595-1.304-2.9-2.897-2.9Z" fill="#FEFAFC"></path><defs><linearGradient id="support_svg__b" x1="51.835" y1="102.635" x2="106.842" y2="39.414" gradientUnits="userSpaceOnUse"><stop stop-color="#F80759"></stop><stop offset="1" stop-color="#BC4E9C"></stop></linearGradient><linearGradient id="support_svg__c" x1="52.613" y1="113.413" x2="124.622" y2="30.651" gradientUnits="userSpaceOnUse"><stop stop-color="#F46B45"></stop><stop offset="1" stop-color="#EEA849"></stop></linearGradient><filter id="support_svg__a" x="0.228" y="9" width="94.952" height="95" filterUnits="userSpaceOnUse" color-interpolation-filters="sRGB"><feFlood flood-opacity="0" result="BackgroundImageFix"></feFlood><feColorMatrix in="SourceAlpha" values="0 0 0 0 0 0 0 0 0 0 0 0 0 0 0 0 0 0 127 0"></feColorMatrix><feOffset dy="13"></feOffset><feGaussianBlur stdDeviation="10.5"></feGaussianBlur><feColorMatrix values="0 0 0 0 0.94902 0 0 0 0 0.501961 0 0 0 0 0.27451 0 0 0 0.3 0"></feColorMatrix><feBlend in2="BackgroundImageFix" result="effect1_dropShadow"></feBlend><feBlend in="SourceGraphic" in2="effect1_dropShadow" result="shape"></feBlend></filter></defs></svg>