<svg width="96" height="104" fill="none" xmlns="http://www.w3.org/2000/svg" class="animate-pulse"><g filter="url(#partnership_svg__a)" fill-rule="evenodd" clip-rule="evenodd"><path d="M48.214 17c14.623 0 26.477 11.864 26.477 26.5 0 14.635-11.854 26.5-26.477 26.5-14.622 0-26.476-11.865-26.476-26.5 0-14.636 11.854-26.5 26.476-26.5Z" fill="#FF4361"></path><path d="M48.214 17c14.623 0 26.477 11.864 26.477 26.5 0 14.635-11.854 26.5-26.477 26.5-14.622 0-26.476-11.865-26.476-26.5 0-14.636 11.854-26.5 26.476-26.5Z" fill="url(#partnership_svg__b)"></path></g><path fill-rule="evenodd" clip-rule="evenodd" d="M42.72 1h9.991C69.265 1 82.684 14.43 82.684 31v10c0 16.568-13.42 30-29.973 30h-9.99c-16.554 0-29.974-13.432-29.974-30V31c0-16.569 13.42-30 29.973-30Z" fill="#FF4361"></path><path fill-rule="evenodd" clip-rule="evenodd" d="M42.72 1h9.991C69.265 1 82.684 14.43 82.684 31v10c0 16.568-13.42 30-29.973 30h-9.99c-16.554 0-29.974-13.432-29.974-30V31c0-16.569 13.42-30 29.973-30Z" fill="url(#partnership_svg__c)"></path><path fill-rule="evenodd" clip-rule="evenodd" d="M51.144 41.637a1.05 1.05 0 0 0 .318-.762v-2.709h11.24v8.127c0 .743-.262 1.382-.787 1.912a2.561 2.561 0 0 1-1.89.796h-24.62a2.561 2.561 0 0 1-1.89-.796 2.623 2.623 0 0 1-.787-1.913v-8.126h11.24v2.709c0 .293.106.547.318.762.212.214.463.322.753.322h5.352c.29 0 .541-.108.753-.322Zm-1.288-3.47h-4.282v2.166h4.282v-2.167Zm12.06-10.04a2.56 2.56 0 0 0-1.89-.796h-5.888v-2.708c0-.452-.156-.835-.469-1.152a1.542 1.542 0 0 0-1.137-.474h-9.634c-.446 0-.825.159-1.137.474-.313.316-.469.7-.469 1.152v2.708h-5.887a2.56 2.56 0 0 0-1.89.796 2.62 2.62 0 0 0-.787 1.913v6.5h29.974v-6.5a2.62 2.62 0 0 0-.787-1.913Zm-9.92-.796h-8.563v-2.167h8.564v2.167Z" fill="#fff"></path><defs><linearGradient id="partnership_svg__b" x1="52.346" y1="102.635" x2="107.353" y2="39.414" gradientUnits="userSpaceOnUse"><stop stop-color="#F80759"></stop><stop offset="1" stop-color="#BC4E9C"></stop></linearGradient><linearGradient id="partnership_svg__c" x1="53.124" y1="113.413" x2="125.133" y2="30.651" gradientUnits="userSpaceOnUse"><stop stop-color="#FF416C"></stop><stop offset="1" stop-color="#FF4B2B"></stop></linearGradient><filter id="partnership_svg__a" x="0.738" y="9" width="94.952" height="95" filterUnits="userSpaceOnUse" color-interpolation-filters="sRGB"><feFlood flood-opacity="0" result="BackgroundImageFix"></feFlood><feColorMatrix in="SourceAlpha" values="0 0 0 0 0 0 0 0 0 0 0 0 0 0 0 0 0 0 127 0"></feColorMatrix><feOffset dy="13"></feOffset><feGaussianBlur stdDeviation="10.5"></feGaussianBlur><feColorMatrix values="0 0 0 0 1 0 0 0 0 0.266667 0 0 0 0 0.341176 0 0 0 0.3 0"></feColorMatrix><feBlend in2="BackgroundImageFix" result="effect1_dropShadow"></feBlend><feBlend in="SourceGraphic" in2="effect1_dropShadow" result="shape"></feBlend></filter></defs></svg>