<svg width="96" height="104" fill="none" xmlns="http://www.w3.org/2000/svg" class="animate-pulse"><g filter="url(#subscription_svg__a)"><path fill-rule="evenodd" clip-rule="evenodd" d="M47.96 17c14.622 0 26.476 11.864 26.476 26.5 0 14.635-11.854 26.5-26.476 26.5-14.623 0-26.477-11.865-26.477-26.5 0-14.636 11.854-26.5 26.477-26.5Z" fill="#FF4361"></path></g><path fill-rule="evenodd" clip-rule="evenodd" d="M42.465 1h9.991C69.01 1 82.43 14.43 82.43 31v10c0 16.568-13.42 30-29.974 30h-9.99c-16.554 0-29.974-13.432-29.974-30V31c0-16.569 13.42-30 29.973-30Z" fill="#FF4361"></path><path fill-rule="evenodd" clip-rule="evenodd" d="M42.465 1h9.991C69.01 1 82.43 14.43 82.43 31v10c0 16.568-13.42 30-29.974 30h-9.99c-16.554 0-29.974-13.432-29.974-30V31c0-16.569 13.42-30 29.973-30Z" fill="url(#subscription_svg__b)"></path><path fill-rule="evenodd" clip-rule="evenodd" d="M64.989 31.858c.005.103-.002.206-.028.31l-2.28 9.167a1.039 1.039 0 0 1-1 .79L48 42.192H34.314c-.477 0-.892-.326-1.007-.79l-2.28-9.201a1.041 1.041 0 0 1-.027-.318 2.189 2.189 0 0 1-1.524-2.086c0-1.207.977-2.188 2.177-2.188 1.2 0 2.176.98 2.176 2.188 0 .679-.31 1.286-.794 1.688l2.855 2.89a3.886 3.886 0 0 0 2.747 1.15 3.886 3.886 0 0 0 3.093-1.546l4.691-6.248a2.184 2.184 0 0 1-.638-1.546c0-1.206.977-2.188 2.177-2.188a2.185 2.185 0 0 1 1.572 3.697c0 .002.003.003.004.005l4.657 6.265a3.882 3.882 0 0 0 3.1 1.562 3.836 3.836 0 0 0 2.737-1.14l2.873-2.887a2.187 2.187 0 0 1-.813-1.702c0-1.207.976-2.188 2.177-2.188a2.188 2.188 0 0 1 .722 4.249Zm-2.53 13.599a1.04 1.04 0 0 0-1.037-1.041h-26.81a1.04 1.04 0 0 0-1.036 1.04v2.5c0 .577.464 1.043 1.037 1.043h26.81c.572 0 1.036-.466 1.036-1.042v-2.5Z" fill="#fff"></path><defs><linearGradient id="subscription_svg__b" x1="52.869" y1="113.413" x2="124.878" y2="30.651" gradientUnits="userSpaceOnUse"><stop stop-color="#FF5858"></stop><stop offset="1" stop-color="#F857A6"></stop></linearGradient><filter id="subscription_svg__a" x="0.483" y="9" width="94.952" height="95" filterUnits="userSpaceOnUse" color-interpolation-filters="sRGB"><feFlood flood-opacity="0" result="BackgroundImageFix"></feFlood><feColorMatrix in="SourceAlpha" values="0 0 0 0 0 0 0 0 0 0 0 0 0 0 0 0 0 0 127 0"></feColorMatrix><feOffset dy="13"></feOffset><feGaussianBlur stdDeviation="10.5"></feGaussianBlur><feColorMatrix values="0 0 0 0 0.992157 0 0 0 0 0.345098 0 0 0 0 0.447059 0 0 0 0.3 0"></feColorMatrix><feBlend in2="BackgroundImageFix" result="effect1_dropShadow"></feBlend><feBlend in="SourceGraphic" in2="effect1_dropShadow" result="shape"></feBlend></filter></defs></svg>